<?xml version="1.0" encoding="UTF-8"?>
<svg width="64px" height="35px" viewBox="0 0 64 35" version="1.1" xmlns="http://www.w3.org/2000/svg" xmlns:xlink="http://www.w3.org/1999/xlink">
    <!-- Generator: Sketch 48.2 (47327) - http://www.bohemiancoding.com/sketch -->
    <title>favicon</title>
    <desc>Created with Sketch.</desc>
    <defs></defs>
    <g id="Artboard" stroke="none" stroke-width="1" fill="none" fill-rule="evenodd" transform="translate(0.000000, -15.000000)">
        <path d="M58.7029256,21.4756895 C48.476867,13.1169981 17.6208467,12.8502314 6.41664336,20.6753892 C-3.54264849,27.6113246 -1.49743677,43.8840961 9.70676656,48.1523641 C14.9531792,50.1975758 21.9780369,50.4643425 26.5130716,46.8185303 C31.314873,42.9948737 31.1370285,41.2164287 36.2945189,45.8403856 C41.3630871,50.3754203 47.4098,50.4643425 53.6343574,48.3302086 C64.7496385,44.5954741 67.6840727,28.8562361 58.7029256,21.4756895 Z M9.08431082,34.0137265 C13.8861122,28.4116249 20.6442031,28.4116249 25.4460046,34.0137265 C20.6442031,39.6158282 13.8861122,39.6158282 9.08431082,34.0137265 Z M39.9403311,34.0137265 C44.7421325,28.4116249 51.5002234,28.4116249 56.3020249,34.0137265 C51.5002234,39.6158282 44.7421325,39.6158282 39.9403311,34.0137265 Z" id="favicon" fill="#000000"></path>
    </g>
</svg>